<svg width="23" height="23" viewBox="0 0 23 23" fill="none" xmlns="http://www.w3.org/2000/svg">
<path id="Union" fill-rule="evenodd" clip-rule="evenodd" d="M11.8401 2.078C6.86952 2.078 2.84009 6.10744 2.84009 11.078C2.84009 16.0486 6.86952 20.078 11.8401 20.078C16.8107 20.078 20.8401 16.0486 20.8401 11.078C20.8401 6.10744 16.8107 2.078 11.8401 2.078ZM0.840088 11.078C0.840088 5.00287 5.76496 0.0780029 11.8401 0.0780029C17.9152 0.0780029 22.8401 5.00287 22.8401 11.078C22.8401 17.1531 17.9152 22.078 11.8401 22.078C5.76496 22.078 0.840088 17.1531 0.840088 11.078ZM11.8401 6.078C12.3924 6.078 12.8401 6.52572 12.8401 7.078V10.078H15.8401C16.3924 10.078 16.8401 10.5257 16.8401 11.078C16.8401 11.6303 16.3924 12.078 15.8401 12.078H12.8401V15.078C12.8401 15.6303 12.3924 16.078 11.8401 16.078C11.2878 16.078 10.8401 15.6303 10.8401 15.078V12.078H7.84009C7.2878 12.078 6.84009 11.6303 6.84009 11.078C6.84009 10.5257 7.2878 10.078 7.84009 10.078H10.8401V7.078C10.8401 6.52572 11.2878 6.078 11.8401 6.078Z" fill="#8C8C8C"/>
</svg>
