<svg width="22" height="22" viewBox="0 0 22 22" fill="none" xmlns="http://www.w3.org/2000/svg">
<path id="Union" fill-rule="evenodd" clip-rule="evenodd" d="M21.7164 10.3991C21.8814 10.5774 21.9823 10.816 21.9823 11.0782C21.9823 11.4877 21.736 11.8398 21.3835 11.9944L2.32389 21.1712C1.95447 21.3491 1.51389 21.2835 1.21238 21.0056C0.910878 20.7277 0.809544 20.294 0.956732 19.9113L4.3542 11.0779L0.956734 2.24445C0.809546 1.86176 0.91088 1.42799 1.21238 1.15013C1.51389 0.872257 1.95447 0.806594 2.3239 0.984467L21.4033 10.1708C21.4493 10.1922 21.4934 10.217 21.5353 10.2449C21.6022 10.2893 21.6628 10.3412 21.7164 10.3991ZM16.6005 10.0782L3.72889 3.8807L6.11253 10.0782L16.6005 10.0782ZM6.1123 12.0782L16.5993 12.0782L3.72889 18.275L6.1123 12.0782Z" fill="#BABABA"/>
</svg>
