<svg width="27" height="22" viewBox="0 0 27 22" fill="none" xmlns="http://www.w3.org/2000/svg">
<g id="health icon" clip-path="url(#clip0_48_35)">
<path id="Vector" d="M26.5977 6.63894C26.5977 7.51063 26.4203 8.3745 26.0763 9.17927C25.7323 9.98491 25.2279 10.7167 24.5928 11.3329L13.5972 22L2.75753 11.4841H8.16393C8.54914 11.4841 8.89135 11.2451 9.01408 10.8896L10.3256 7.07261L13.7979 17.1801C13.9197 17.5355 14.2619 17.7745 14.648 17.7745C15.0341 17.7745 15.3763 17.5355 15.4982 17.1801L17.4547 11.4841H19.6916C20.1861 11.4841 20.5875 11.0947 20.5875 10.615C20.5875 10.1353 20.1861 9.74591 19.6916 9.74591H16.8097C16.4236 9.74591 16.0814 9.98578 15.9595 10.3404L14.648 14.1574L11.1749 4.04993C11.053 3.69448 10.7108 3.45548 10.3256 3.45548C9.94038 3.45548 9.59728 3.69448 9.47544 4.04993L7.51803 9.74591H1.39316C0.875367 8.79774 0.597656 7.73224 0.597656 6.63894C0.597656 4.87817 1.31791 3.19041 2.60165 1.94501C3.88539 0.699613 5.62512 0.000869084 7.44009 0.000869084C9.25506 0.000869084 10.9957 0.700482 12.2785 1.94501L13.5972 3.2243L14.9159 1.94501C15.551 1.32883 16.3053 0.839535 17.1358 0.505807C17.9653 0.172079 18.8558 0 19.7543 0C20.6529 0 21.5424 0.172079 22.3729 0.505807C23.2033 0.839535 23.9576 1.32883 24.5928 1.94501C25.2279 2.56119 25.7323 3.29296 26.0763 4.0986C26.4203 4.90424 26.5977 5.76724 26.5977 6.63894Z" fill="#bbbbbb"/>
</g>
<defs>
<clipPath id="clip0_48_35">
<rect width="26" height="22" fill="white" transform="translate(0.597656)"/>
</clipPath>
</defs>
</svg>
