<svg width="25" height="24" viewBox="0 0 25 24" fill="none" xmlns="http://www.w3.org/2000/svg">
<g id="pill icon" clip-path="url(#clip0_48_41)">
<path id="Vector" d="M23.7661 4.16571C21.7066 -0.0531754 16.1629 -1.07249 12.7354 2.1357C11.113 3.65461 9.51716 5.203 7.91271 6.74133C7.79338 6.85562 7.69202 6.97711 7.60935 7.10362C7.58491 7.12447 7.56047 7.14747 7.53603 7.17047C6.04156 8.59881 4.5593 10.0394 3.04974 11.4512C1.91612 12.5115 1.03122 13.7119 0.682586 15.2546C0.615734 15.5529 0.560383 15.8541 0.5 16.1539V17.4478C0.519409 17.4895 0.551038 17.5297 0.55607 17.5728C0.781786 19.5058 1.694 21.0384 3.21363 22.2345C5.86041 24.3185 9.86149 24.2624 12.3688 22.0146C14.0854 20.477 15.728 18.8553 17.3827 17.2494C17.4863 17.1487 17.5754 17.0416 17.648 16.9295C17.6645 16.9144 17.6818 16.8986 17.6983 16.8828C19.1727 15.4681 20.6535 14.0599 22.1293 12.6466C23.0055 11.807 23.6784 10.8308 24.1528 9.48443C24.6905 7.79874 24.6359 5.94772 23.7661 4.16571ZM21.6685 8.65488C21.4931 9.19617 21.1847 9.74968 20.7908 10.1551C19.494 11.4864 18.1325 12.7537 16.7545 14.0836C16.743 14.0944 16.7315 14.1059 16.72 14.1167C16.1248 13.497 15.5705 12.9241 15.0206 12.3469C13.6527 10.9142 12.2876 9.47868 10.9175 8.04818C10.8406 7.96767 10.7751 7.89722 10.7658 7.81887C10.7586 7.75705 10.7866 7.6902 10.8722 7.60897C12.1941 6.36321 13.465 5.05923 14.8395 3.8753C16.8127 2.17452 19.7506 2.67699 21.1624 4.87737C21.9194 6.05771 22.094 7.33653 21.6685 8.65488Z" fill="#BBBBBB"/>
</g>
<defs>
<clipPath id="clip0_48_41">
<rect width="24" height="23.5011" fill="white" transform="translate(0.5 0.249451)"/>
</clipPath>
</defs>
</svg>
